<svg xmlns="http://www.w3.org/2000/svg" xmlns:xlink="http://www.w3.org/1999/xlink" width="75" height="75" viewBox="0 0 75 75">
  <defs>
    <clipPath id="clip-path">
      <rect id="Rectangle_4784" data-name="Rectangle 4784" width="75" height="75" transform="translate(0 0.206)" fill="none"/>
    </clipPath>
  </defs>
  <g id="Group_11695" data-name="Group 11695" transform="translate(-1003 -3857)">
    <circle id="Ellipse_1042" data-name="Ellipse 1042" cx="28.5" cy="28.5" r="28.5" transform="translate(1008 3870)" fill="#fff"/>
    <g id="Group_11654" data-name="Group 11654" transform="translate(1003 3856.794)">
      <g id="Group_11653" data-name="Group 11653" clip-path="url(#clip-path)">
        <path id="Path_6969" data-name="Path 6969" d="M47.048,9.44H24.793A1.793,1.793,0,0,0,23,11.233v2.023a1.793,1.793,0,0,0,1.793,1.792H47.048a1.793,1.793,0,0,0,1.792-1.792V11.233A1.793,1.793,0,0,0,47.048,9.44" transform="translate(1.711 0.702)" fill="#ffd900"/>
        <path id="Path_6970" data-name="Path 6970" d="M56.854,36.727l8.073-2.46a2.183,2.183,0,1,0-1.272-4.176" transform="translate(4.228 2.231)" fill="none" stroke="#000" stroke-linecap="round" stroke-linejoin="round" stroke-width="1"/>
        <path id="Path_6971" data-name="Path 6971" d="M53.528,42.045l10.727-3.268A2.183,2.183,0,1,0,62.981,34.6" transform="translate(3.981 2.566)" fill="none" stroke="#000" stroke-linecap="round" stroke-linejoin="round" stroke-width="1"/>
        <path id="Path_6972" data-name="Path 6972" d="M60.287,31.666l6.263-1.908a2.183,2.183,0,0,0-1.273-4.177L51.795,29.689a6.17,6.17,0,0,0-4.1,7.716l2.014,6.613" transform="translate(3.527 1.895)" fill="none" stroke="#000" stroke-linecap="round" stroke-linejoin="round" stroke-width="1"/>
        <path id="Path_6973" data-name="Path 6973" d="M13.812,36.727l-8.073-2.46a2.183,2.183,0,1,1,1.272-4.176" transform="translate(0.312 2.231)" fill="none" stroke="#000" stroke-linecap="round" stroke-linejoin="round" stroke-width="1"/>
        <path id="Path_6974" data-name="Path 6974" d="M20.558,29.795a6.172,6.172,0,0,1,3.051,7.29L21.594,43.7l-15-4.569A2.183,2.183,0,0,1,7.868,34.95" transform="translate(0.375 2.216)" fill="none" stroke="#000" stroke-linecap="round" stroke-linejoin="round" stroke-width="1"/>
        <path id="Path_6975" data-name="Path 6975" d="M11.145,31.666,4.882,29.758a2.183,2.183,0,0,1,1.273-4.177l10.277,3.132" transform="translate(0.248 1.895)" fill="none" stroke="#000" stroke-linecap="round" stroke-linejoin="round" stroke-width="1"/>
        <path id="Path_6976" data-name="Path 6976" d="M48.474,63.973H24.022a5.43,5.43,0,0,1-5.431-5.43V20.091a5.431,5.431,0,0,1,5.431-5.431H48.474A5.431,5.431,0,0,1,53.9,20.091V58.543a5.43,5.43,0,0,1-5.431,5.43" transform="translate(1.383 1.09)" fill="#f7f7f7"/>
        <path id="Path_6977" data-name="Path 6977" d="M48.474,63.973H24.022a5.43,5.43,0,0,1-5.431-5.43V20.091a5.431,5.431,0,0,1,5.431-5.431H48.474A5.431,5.431,0,0,1,53.9,20.091V58.543A5.43,5.43,0,0,1,48.474,63.973Z" transform="translate(1.383 1.09)" fill="none" stroke="#000" stroke-linecap="round" stroke-linejoin="round" stroke-width="1"/>
        <path id="Path_6978" data-name="Path 6978" d="M48.326,59.917H23.864a3.2,3.2,0,0,1-3.2-3.2V38.6a1.528,1.528,0,0,1,1.528-1.528H50A1.527,1.527,0,0,1,51.525,38.6V56.718a3.2,3.2,0,0,1-3.2,3.2" transform="translate(1.537 2.757)" fill="#fff"/>
        <line id="Line_21" data-name="Line 21" y2="2.334" transform="translate(52.223 29.69)" fill="none" stroke="#000" stroke-linecap="round" stroke-linejoin="round" stroke-width="1"/>
        <path id="Path_6979" data-name="Path 6979" d="M44.631,17.207A4.273,4.273,0,0,1,48.9,21.48v5.229" transform="translate(3.319 1.28)" fill="none" stroke="#000" stroke-linecap="round" stroke-linejoin="round" stroke-width="1"/>
        <path id="Path_6980" data-name="Path 6980" d="M46.84,36.117A11.048,11.048,0,1,1,35.791,25.068,11.049,11.049,0,0,1,46.84,36.117" transform="translate(1.84 1.864)" fill="#ffd900"/>
        <path id="Path_6981" data-name="Path 6981" d="M35.245,35.79a3.163,3.163,0,1,1,3.164-3.164" transform="translate(2.386 2.191)" fill="none" stroke="#000" stroke-linecap="round" stroke-linejoin="round" stroke-width="1"/>
        <path id="Path_6982" data-name="Path 6982" d="M35.245,35.352a3.163,3.163,0,1,1-3.164,3.164" transform="translate(2.386 2.629)" fill="none" stroke="#000" stroke-linecap="round" stroke-linejoin="round" stroke-width="1"/>
        <line id="Line_22" data-name="Line 22" y1="2.798" transform="translate(37.631 28.856)" fill="none" stroke="#000" stroke-linecap="round" stroke-linejoin="round" stroke-width="1"/>
        <line id="Line_23" data-name="Line 23" y1="2.798" transform="translate(37.631 44.309)" fill="none" stroke="#000" stroke-linecap="round" stroke-linejoin="round" stroke-width="1"/>
      </g>
    </g>
  </g>
</svg>
