<svg xmlns="http://www.w3.org/2000/svg" xmlns:xlink="http://www.w3.org/1999/xlink" width="70" height="70" viewBox="0 0 70 70">
  <defs>
    <clipPath id="clip-path">
      <rect id="Rectangle_4782" data-name="Rectangle 4782" width="70" height="70" fill="none"/>
    </clipPath>
  </defs>
  <g id="Group_11690" data-name="Group 11690" transform="translate(-572 -3602)">
    <circle id="Ellipse_1039" data-name="Ellipse 1039" cx="28.5" cy="28.5" r="28.5" transform="translate(572 3609)" fill="#fff"/>
    <g id="Group_11650" data-name="Group 11650" transform="translate(572 3602)">
      <rect id="Rectangle_4781" data-name="Rectangle 4781" width="6.156" height="46.782" transform="translate(10.077 10.321) rotate(-10.709)" fill="#ffd900"/>
      <g id="Group_11649" data-name="Group 11649">
        <g id="Group_11648" data-name="Group 11648" clip-path="url(#clip-path)">
          <path id="Path_6953" data-name="Path 6953" d="M17.275,57.023a3.025,3.025,0,0,1-2.966-2.46L6.57,13.545a3.022,3.022,0,0,1,2.407-3.526l24.645-4.65a3.019,3.019,0,0,1,3.527,2.407l.3,1.588a.5.5,0,1,1-.982.185l-.3-1.588a2.028,2.028,0,0,0-2.359-1.61L9.162,11a2.021,2.021,0,0,0-1.61,2.358l7.74,41.017a2.022,2.022,0,0,0,2.358,1.611l9.113-1.72a.5.5,0,0,1,.186.983L17.836,56.97a3.077,3.077,0,0,1-.561.053"/>
          <path id="Path_6954" data-name="Path 6954" d="M58.438,37.682a4.648,4.648,0,1,1-4.022-5.2,4.647,4.647,0,0,1,4.022,5.2" fill="#ffd900"/>
          <path id="Path_6955" data-name="Path 6955" d="M42.765,60.049a.444.444,0,0,1-.063,0L28.841,58.279a.5.5,0,0,1,.126-.992l13.86,1.766a.5.5,0,0,1-.062,1"/>
          <path id="Path_6956" data-name="Path 6956" d="M50.93,24.214l-3.111-.4a.9.9,0,0,1-.78-1.008l.561-4.384a.9.9,0,0,1,1.007-.779l3.112.4a.9.9,0,0,1,.779,1.008l-.56,4.383a.9.9,0,0,1-1.008.78" fill="#ffd900"/>
          <path id="Path_6957" data-name="Path 6957" d="M55.5,64.813a3.23,3.23,0,0,1-.4-.025L28.7,61.416a3.179,3.179,0,0,1-2.745-3.55l.667-5.22a.5.5,0,1,1,.992.127l-.667,5.22a2.175,2.175,0,0,0,1.88,2.43l26.4,3.372a2.173,2.173,0,0,0,2.43-1.879l5.613-43.929a2.177,2.177,0,0,0-1.88-2.431L34.99,12.184a2.177,2.177,0,0,0-2.43,1.88L28.181,48.339a.5.5,0,0,1-.993-.127l4.379-34.275a3.176,3.176,0,0,1,3.549-2.745l26.4,3.372a3.178,3.178,0,0,1,2.745,3.55L58.645,62.042A3.179,3.179,0,0,1,55.5,64.813"/>
          <path id="Path_6958" data-name="Path 6958" d="M41.163,5.673a.5.5,0,0,1-.495-.431L40.1,1.168a.5.5,0,0,1,.991-.139L41.659,5.1a.5.5,0,0,1-.427.564.534.534,0,0,1-.069,0"/>
          <path id="Path_6959" data-name="Path 6959" d="M50.356,10.482a.5.5,0,0,1-.167-.972l3.877-1.375a.5.5,0,0,1,.334.944l-3.877,1.375a.509.509,0,0,1-.167.028"/>
          <path id="Path_6960" data-name="Path 6960" d="M46.266,7.462A.493.493,0,0,1,46,7.386a.5.5,0,0,1-.158-.69L48.78,2.013a.5.5,0,1,1,.847.531L46.69,7.228a.5.5,0,0,1-.424.234"/>
        </g>
      </g>
    </g>
  </g>
</svg>
