<svg xmlns="http://www.w3.org/2000/svg" xmlns:xlink="http://www.w3.org/1999/xlink" width="70" height="70" viewBox="0 0 70 70">
  <defs>
    <clipPath id="clip-path">
      <rect id="Rectangle_4785" data-name="Rectangle 4785" width="70" height="70" fill="none"/>
    </clipPath>
  </defs>
  <g id="Group_11693" data-name="Group 11693" transform="translate(-568 -3863)">
    <circle id="Ellipse_1044" data-name="Ellipse 1044" cx="28.5" cy="28.5" r="28.5" transform="translate(572 3870)" fill="#fff"/>
    <g id="Group_11656" data-name="Group 11656" transform="translate(568 3863)">
      <g id="Group_11655" data-name="Group 11655" clip-path="url(#clip-path)">
        <path id="Path_6983" data-name="Path 6983" d="M50.515,21.864V34.29H45V21.864a7.981,7.981,0,0,0-.274-2.081c-.034-.128-.072-.255-.113-.38a7.97,7.97,0,0,0-15.55,2.461V34.29H23.546V21.864a13.484,13.484,0,1,1,26.969,0" fill="#ffd900"/>
        <path id="Path_6984" data-name="Path 6984" d="M58.333,42.637a21.306,21.306,0,1,1-21.3-21.3,21.3,21.3,0,0,1,21.3,21.3" fill="#f7f7f7"/>
        <path id="Path_6985" data-name="Path 6985" d="M39.3,43.837l.755,4.944a1.5,1.5,0,0,1-1.488,1.733H35.491A1.508,1.508,0,0,1,34,48.781l.755-4.944a4.823,4.823,0,1,1,4.549,0"/>
        <path id="Path_6986" data-name="Path 6986" d="M17,35.368a21.318,21.318,0,1,1-1.272,7.269" fill="none" stroke="#000" stroke-linecap="round" stroke-linejoin="round" stroke-width="1"/>
        <path id="Path_6987" data-name="Path 6987" d="M18,38.176a15.28,15.28,0,0,0,6.034,1.743,1.764,1.764,0,0,1,1.637,1.719c.114,8.991-3.777,13.584-9.017,16.695-5.24-3.111-9.13-7.7-9.017-16.695a1.764,1.764,0,0,1,1.638-1.719,15.28,15.28,0,0,0,6.033-1.743,2.7,2.7,0,0,1,2.692,0" fill="#ffd900"/>
        <path id="Path_6988" data-name="Path 6988" d="M12.537,47.514l2.776,2.781,5.163-5.81" fill="none" stroke="#000" stroke-linecap="round" stroke-linejoin="round" stroke-width="1"/>
        <path id="Path_6989" data-name="Path 6989" d="M37.03,24.988a17.647,17.647,0,0,1,15.519,9.236" fill="none" stroke="#000" stroke-linecap="round" stroke-linejoin="round" stroke-width="1"/>
        <path id="Path_6990" data-name="Path 6990" d="M53.723,36.891a17.57,17.57,0,0,1,.877,4.054" fill="none" stroke="#000" stroke-linecap="round" stroke-linejoin="round" stroke-width="1"/>
      </g>
    </g>
  </g>
</svg>
