<svg xmlns="http://www.w3.org/2000/svg" xmlns:xlink="http://www.w3.org/1999/xlink" width="70" height="70" viewBox="0 0 70 70">
  <defs>
    <clipPath id="clip-path">
      <rect id="Rectangle_4787" data-name="Rectangle 4787" width="70" height="70" fill="none"/>
    </clipPath>
  </defs>
  <g id="Group_11694" data-name="Group 11694" transform="translate(-783 -3863)">
    <circle id="Ellipse_1043" data-name="Ellipse 1043" cx="28.5" cy="28.5" r="28.5" transform="translate(790 3870)" fill="#fff"/>
    <g id="Group_11659" data-name="Group 11659" transform="translate(783 3863)">
      <rect id="Rectangle_4786" data-name="Rectangle 4786" width="2.768" height="22.818" transform="translate(19.017 25.19)" fill="#ffd900"/>
      <g id="Group_11658" data-name="Group 11658">
        <g id="Group_11657" data-name="Group 11657" clip-path="url(#clip-path)">
          <path id="Path_6991" data-name="Path 6991" d="M53.782,10.866V59.131a4.328,4.328,0,0,1-4.326,4.33H23.339a4.327,4.327,0,0,1-4.322-4.33V48.007h2.768v5.972a2.2,2.2,0,0,0,2.2,2.2H48.812a2.2,2.2,0,0,0,2.2-2.2V11.671a2.195,2.195,0,0,0-2.2-2.2H45.785v.97a2.014,2.014,0,0,1-2.013,2.016H29.03a2.017,2.017,0,0,1-2.016-2.016v-.97H23.983a2.2,2.2,0,0,0-2.2,2.2V25.192l-2.768,0V10.866a4.32,4.32,0,0,1,4.322-4.322H49.456a4.322,4.322,0,0,1,4.326,4.322" fill="#ffd900"/>
          <line id="Line_24" data-name="Line 24" x2="9.199" transform="translate(31.801 59.677)" fill="none" stroke="#000" stroke-linecap="round" stroke-linejoin="round" stroke-width="1"/>
          <path id="Path_6992" data-name="Path 6992" d="M33.6,25.186l-11.813.007H19.016l-7.143,0a1.913,1.913,0,0,0-1.908,1.911l.007,19a1.913,1.913,0,0,0,1.911,1.907h1.79l6.727,0,1.384,0L33.607,48" fill="#f7f7f7"/>
          <line id="Line_25" data-name="Line 25" x1="0.009" y1="22.818" transform="translate(33.604 25.184)" fill="#fff4b2"/>
          <line id="Line_26" data-name="Line 26" x1="0.009" y1="22.818" transform="translate(33.604 25.184)" fill="none" stroke="#000" stroke-linecap="round" stroke-linejoin="round" stroke-width="1" stroke-dasharray="5.25 3.85"/>
          <path id="Path_6993" data-name="Path 6993" d="M16.678,48.011l5.107,0L33.608,48" fill="none" stroke="#000" stroke-linecap="round" stroke-linejoin="round" stroke-width="1"/>
          <path id="Path_6994" data-name="Path 6994" d="M33.6,25.186l-11.813.007H19.016l-7.143,0a1.913,1.913,0,0,0-1.908,1.911l.007,19a1.913,1.913,0,0,0,1.911,1.907h1.141" fill="none" stroke="#000" stroke-linecap="round" stroke-linejoin="round" stroke-width="1"/>
          <path id="Path_6995" data-name="Path 6995" d="M29.828,42.157c-.38,2.977-4.092,4.711-6.911,1.937-1.982-3.427.632-6.586,3.609-6.205a3.816,3.816,0,0,1,3.3,4.268" fill="#ffd900"/>
        </g>
      </g>
    </g>
  </g>
</svg>
