<svg xmlns="http://www.w3.org/2000/svg" xmlns:xlink="http://www.w3.org/1999/xlink" width="111" height="111" viewBox="0 0 111 111">
  <defs>
    <clipPath id="clip-path">
      <rect id="Rectangle_4789" data-name="Rectangle 4789" width="111" height="111" transform="translate(0 -0.196)" fill="none"/>
    </clipPath>
  </defs>
  <g id="Group_11663" data-name="Group 11663" transform="translate(0 0.196)">
    <g id="Group_11662" data-name="Group 11662" clip-path="url(#clip-path)">
      <path id="Path_7005" data-name="Path 7005" d="M60.337,86.166A4.283,4.283,0,0,1,56.19,89.68l-16.256.174h-.047a3.737,3.737,0,0,1-3.688-3.1,11.491,11.491,0,0,0-.427-1.694c-.9-1.472-14.848-24.029-18.742-28.192-3.926-4.195,2.913-15.053,8.405-22.857l.332-.459c.253-.38.554-.807.886-1.3.3-.459.633-.934,1-1.456l.7,1.789c-.142.19-.253.38-.38.554-.348.491-.649.95-.918,1.33l-.317.459C16.76,49.079,16.586,54.081,18.184,55.79,22.3,60.191,36.562,83.317,37.163,84.3a.474.474,0,0,1,.063.158,10.918,10.918,0,0,1,.522,2.01,2.185,2.185,0,0,0,2.137,1.8h.032L56.174,88.1a2.677,2.677,0,0,0,2.6-2.2c1.076-5.936,3.514-20.214,3.134-24.6a11.088,11.088,0,0,0-1.013-4.385.781.781,0,0,1,.348-1.061A.8.8,0,0,1,62.3,56.2a12.823,12.823,0,0,1,1.187,4.955c.4,4.575-2.074,19.027-3.15,25.01" transform="translate(9.249 17.951)" fill="#fff"/>
      <path id="Path_7006" data-name="Path 7006" d="M50.468,43.029c-.253,1.361-2.105,4.337-5.493,8.817l-1.884,2.5-.443.586a7.08,7.08,0,0,1-5.667-6.284l.364-.554v-.016c.047-.269.095-.554.142-.871.127-.823.253-1.773.4-2.849l-1,1.535a45.049,45.049,0,0,1-.966,5.129v.016a9.658,9.658,0,0,0,.507,1.076A16.871,16.871,0,0,1,43,56.579a.811.811,0,0,0,.633-.3l.586-.776,2.026-2.691c3.862-5.144,5.667-8.168,5.841-9.782.016-.206.032-.427.032-.633Z" transform="translate(20.939 24.713)" fill="#fff"/>
      <path id="Path_7007" data-name="Path 7007" d="M48.615,21.214a5.956,5.956,0,1,1-7.7-3.408,5.958,5.958,0,0,1,7.7,3.408" transform="translate(21.626 10.145)" fill="#ffd900"/>
      <path id="Path_7008" data-name="Path 7008" d="M36.551,15.88,32.8,17.33a1.156,1.156,0,0,1-1.494-.662l-2.042-5.282a1.157,1.157,0,0,1,.662-1.494l3.748-1.448a1.154,1.154,0,0,1,1.494.66l2.04,5.284a1.153,1.153,0,0,1-.66,1.493" transform="translate(17.015 4.876)" fill="#ffd900"/>
      <path id="Path_7009" data-name="Path 7009" d="M76.24,57.534,55.788,4.586A4.235,4.235,0,0,0,50.327,2.18l-31.8,12.3a4.11,4.11,0,0,0-2.343,2.232,4.189,4.189,0,0,0-.079,3.213l18.5,47.851c.158-.332.3-.665.459-1.013.127-.332.285-.7.427-1.045l-17.9-46.363a2.606,2.606,0,0,1,.047-2.01A2.571,2.571,0,0,1,19.1,15.951l31.8-12.3a2.7,2.7,0,0,1,2.026.047A2.623,2.623,0,0,1,54.3,5.172L74.767,58.1a2.63,2.63,0,0,1-1.5,3.4L49.2,70.815c-.047.317-.095.617-.142.886-.047.332-.111.649-.174.918l24.947-9.64a4.209,4.209,0,0,0,2.406-5.445" transform="translate(9.223 1.106)" fill="#fff"/>
      <path id="Path_7010" data-name="Path 7010" d="M54.13,71.18a.79.79,0,0,1-.681.886h-.111a.784.784,0,0,1-.776-.681,12.4,12.4,0,0,0-3.118-6.775,16.871,16.871,0,0,0-6.569-4.464.049.049,0,0,0-.032-.016.782.782,0,0,1-.507-.981.666.666,0,0,0,.032-.079v-.016a45.049,45.049,0,0,0,.966-5.129,123.477,123.477,0,0,0,.981-15.006c.079-6.363-2.6-8.674-4.907-8.722a4.308,4.308,0,0,0-4.179,4.353c-.269,9.213-8.01,24.725-9.213,25.358a.784.784,0,0,1-1.061-.332.764.764,0,0,1,.222-1c.981-1.108,8.215-15.37,8.469-24.076a5.827,5.827,0,0,1,5.683-5.888h.111c3.039.063,6.553,2.8,6.458,10.321-.047,4.939-.3,8.9-.617,11.967-.127,1.345-.269,2.533-.412,3.546-.317,2.181-.632,3.62-.823,4.413l.025.054a18.56,18.56,0,0,1,5.467,3.463,15.615,15.615,0,0,1,1.124,1.156A13.913,13.913,0,0,1,54.13,71.18" transform="translate(14.491 16.681)" fill="#fff"/>
      <path id="Path_7011" data-name="Path 7011" d="M17.362,27.211l-.633-3.938L16.1,27.211a5.515,5.515,0,0,1-4.418,4.621l-3.766.662,3.766.662A5.514,5.514,0,0,1,16.1,37.774l.632,3.938.633-3.938a5.512,5.512,0,0,1,4.418-4.619l3.764-.662-3.764-.662a5.514,5.514,0,0,1-4.418-4.621" transform="translate(4.613 13.566)" fill="#ffd900"/>
      <path id="Path_7012" data-name="Path 7012" d="M17.021,42.8h0a.792.792,0,0,1-.782-.668l-.632-3.937a4.724,4.724,0,0,0-3.772-3.965l-3.766-.662a.79.79,0,0,1,0-1.558l3.766-.662a4.731,4.731,0,0,0,3.772-3.967l.632-3.938a.792.792,0,0,1,1.564,0l.633,3.938a4.729,4.729,0,0,0,3.772,3.967l3.764.662a.79.79,0,0,1,0,1.558l-3.764.662a4.722,4.722,0,0,0-3.772,3.965L17.8,42.127a.792.792,0,0,1-.782.668M12.638,32.783a6.3,6.3,0,0,1,4.383,4.465,6.3,6.3,0,0,1,4.385-4.465,6.3,6.3,0,0,1-4.385-4.464,6.3,6.3,0,0,1-4.383,4.464" transform="translate(4.322 13.275)" fill="#ffd900"/>
      <path id="Path_7013" data-name="Path 7013" d="M58.533,11.777l-.67-4.169-.67,4.169a5.839,5.839,0,0,1-4.677,4.891l-3.986.7,3.986.7a5.839,5.839,0,0,1,4.677,4.891l.67,4.169.67-4.169a5.837,5.837,0,0,1,4.676-4.891l3.987-.7-3.987-.7a5.837,5.837,0,0,1-4.676-4.891" transform="translate(28.289 4.435)" fill="#ffd900"/>
      <path id="Path_7014" data-name="Path 7014" d="M58.155,28.211a.792.792,0,0,1-.78-.666L56.7,23.376a5.043,5.043,0,0,0-4.032-4.236l-3.986-.7a.79.79,0,0,1,0-1.558l3.986-.7A5.047,5.047,0,0,0,56.7,11.944l.671-4.169a.791.791,0,0,1,1.562,0l.67,4.169A5.047,5.047,0,0,0,63.64,16.18l3.984.7a.79.79,0,0,1,0,1.558l-3.986.7a5.043,5.043,0,0,0-4.032,4.236l-.67,4.169a.793.793,0,0,1-.782.666M53.327,17.66a6.623,6.623,0,0,1,4.828,4.913,6.623,6.623,0,0,1,4.828-4.913,6.625,6.625,0,0,1-4.828-4.913,6.625,6.625,0,0,1-4.828,4.913" transform="translate(27.998 4.143)" fill="#ffd900"/>
    </g>
  </g>
</svg>
