<svg id="Group_11664" data-name="Group 11664" xmlns="http://www.w3.org/2000/svg" xmlns:xlink="http://www.w3.org/1999/xlink" width="120" height="120" viewBox="0 0 120 120">
  <defs>
    <clipPath id="clip-path">
      <rect id="Rectangle_4790" data-name="Rectangle 4790" width="120" height="120" fill="none"/>
    </clipPath>
  </defs>
  <g id="Group_11664-2" data-name="Group 11664" clip-path="url(#clip-path)">
    <path id="Path_7015" data-name="Path 7015" d="M68.987,6.541H25.317a7.327,7.327,0,0,0-7.229,7.428V96.9a7.336,7.336,0,0,0,7.229,7.439h43.67A7.337,7.337,0,0,0,76.221,96.9V13.969a7.328,7.328,0,0,0-7.234-7.428m2.6,81.509a3.724,3.724,0,0,1-3.676,3.777H26.394a3.723,3.723,0,0,1-3.674-3.777v-72.7a3.72,3.72,0,0,1,3.674-3.777h5.069v1.667a3.42,3.42,0,0,0,3.368,3.464H59.484a3.415,3.415,0,0,0,3.361-3.464V11.576h5.064a3.721,3.721,0,0,1,3.676,3.777Z" transform="translate(12.993 4.699)" fill="#ffd900"/>
    <path id="Path_7016" data-name="Path 7016" d="M46.271,60.894H30.888a.859.859,0,1,1,0-1.718H46.271a.859.859,0,0,1,0,1.718" transform="translate(21.571 42.508)"/>
    <path id="Path_7017" data-name="Path 7017" d="M18.3,54.409a.86.86,0,0,1-.615-.259l-7.507-7.714a.858.858,0,0,1,0-1.2l7.507-7.714a.859.859,0,1,1,1.23,1.2l-6.921,7.116,6.921,7.112a.859.859,0,0,1-.615,1.459" transform="translate(7.136 26.768)" fill="#fff"/>
    <path id="Path_7018" data-name="Path 7018" d="M40.946,43.474h-30a.873.873,0,0,1-.859-.859.862.862,0,0,1,.859-.859H39.262a15.9,15.9,0,0,0,1.684,1.718" transform="translate(7.244 29.995)" fill="#fff"/>
    <path id="Path_7019" data-name="Path 7019" d="M58.146,43.472H54.433a.859.859,0,1,1,0-1.718h3.713a.859.859,0,0,1,0,1.718" transform="translate(38.484 29.993)" fill="#fff"/>
    <path id="Path_7020" data-name="Path 7020" d="M57.1,42.615a.873.873,0,0,1-.859.859H41.965a17.646,17.646,0,0,0,1.684-1.718h12.6a.862.862,0,0,1,.859.859" transform="translate(30.145 29.995)" fill="#fff"/>
    <path id="Path_7021" data-name="Path 7021" d="M55.556,39.579a.859.859,0,0,1-.615-1.459l6.921-7.112-6.921-7.116a.859.859,0,1,1,1.23-1.2l7.507,7.714a.858.858,0,0,1,0,1.2l-7.507,7.714a.86.86,0,0,1-.615.259" transform="translate(39.291 16.116)" fill="#fff"/>
    <path id="Path_7022" data-name="Path 7022" d="M72.328,27.785a.873.873,0,0,1-.859.859H44.061a15.13,15.13,0,0,0-1.426-1.718H71.469a.862.862,0,0,1,.859.859" transform="translate(30.626 19.342)" fill="#fff"/>
    <path id="Path_7023" data-name="Path 7023" d="M18.178,28.642H14.465a.859.859,0,0,1,0-1.718h3.713a.859.859,0,0,1,0,1.718" transform="translate(9.774 19.34)" fill="#fff"/>
    <path id="Path_7024" data-name="Path 7024" d="M32.985,26.926a15.131,15.131,0,0,0-1.426,1.718H20.424a.873.873,0,0,1-.859-.859.862.862,0,0,1,.859-.859Z" transform="translate(14.054 19.342)" fill="#fff"/>
    <path id="Path_7025" data-name="Path 7025" d="M42.992,62.325A19.386,19.386,0,0,1,23.884,42.713,19.386,19.386,0,0,1,42.992,23.1,19.386,19.386,0,0,1,62.1,42.713,19.386,19.386,0,0,1,42.992,62.325m0-37.5A17.667,17.667,0,0,0,25.6,42.713a17.667,17.667,0,0,0,17.39,17.893,17.667,17.667,0,0,0,17.39-17.893A17.667,17.667,0,0,0,42.992,24.82" transform="translate(17.157 16.595)" fill="#fff"/>
    <path id="Path_7026" data-name="Path 7026" d="M37.309,39.441A5.645,5.645,0,1,1,42.823,33.8a.859.859,0,1,1-1.718,0,3.8,3.8,0,1,0-3.8,3.925.859.859,0,1,1,0,1.718" transform="translate(22.839 20.225)" fill="#fff"/>
    <path id="Path_7027" data-name="Path 7027" d="M37.309,45.01A5.586,5.586,0,0,1,31.8,39.367a.859.859,0,1,1,1.718,0,3.8,3.8,0,1,0,3.8-3.925.859.859,0,1,1,0-1.718,5.645,5.645,0,0,1,0,11.286" transform="translate(22.839 24.225)" fill="#fff"/>
    <path id="Path_7028" data-name="Path 7028" d="M35.363,31.643a.859.859,0,0,1-.859-.859V26.551a.859.859,0,1,1,1.718,0v4.232a.859.859,0,0,1-.859.859" transform="translate(24.785 18.455)" fill="#fff"/>
    <path id="Path_7029" data-name="Path 7029" d="M35.363,45.241a.859.859,0,0,1-.859-.859V40.151a.859.859,0,0,1,1.718,0v4.231a.859.859,0,0,1-.859.859" transform="translate(24.785 28.225)" fill="#fff"/>
  </g>
</svg>
